<?xml version="1.0" ?><!DOCTYPE svg  PUBLIC '-//W3C//DTD SVG 1.1//EN'  'http://www.w3.org/Graphics/SVG/1.1/DTD/svg11.dtd'><svg enable-background="new 0 0 512 512" height="512px" id="Calque_1" version="1.1" viewBox="0 0 512 512" width="512px" xml:space="preserve" xmlns="http://www.w3.org/2000/svg" xmlns:xlink="http://www.w3.org/1999/xlink"><g><path d="M429.94,201.34h-2.51v-78.48c0-11-4.47-20.97-11.69-28.2c-7.22-7.22-17.18-11.7-28.17-11.72   c-0.02,0-0.05-0.01-0.07-0.01h-15.1V71.66c0-0.07-0.01-0.13-0.01-0.2c-0.01-0.06-0.01-0.13-0.02-0.2   c-0.01-0.25-0.04-0.49-0.09-0.72v-0.03c-0.05-0.26-0.12-0.51-0.21-0.76c-0.01-0.04-0.03-0.09-0.05-0.13   c-0.09-0.24-0.18-0.46-0.3-0.68c0-0.01-0.01-0.03-0.02-0.04c-0.12-0.23-0.26-0.45-0.41-0.66c-0.03-0.04-0.07-0.09-0.1-0.14   c-0.16-0.21-0.33-0.41-0.52-0.6l-43.49-43.48c-0.19-0.19-0.39-0.36-0.6-0.52c-0.05-0.04-0.09-0.07-0.14-0.11   c-0.21-0.15-0.43-0.29-0.65-0.41c-0.02-0.01-0.04-0.01-0.06-0.02c-0.21-0.11-0.43-0.21-0.66-0.3c-0.05-0.01-0.1-0.03-0.14-0.05   c-0.25-0.08-0.5-0.15-0.76-0.21h-0.03c-0.23-0.05-0.47-0.07-0.72-0.09c-0.07,0-0.13-0.01-0.2-0.01c-0.07,0-0.13-0.01-0.2-0.01   H145.48c-3.24,0-5.87,2.63-5.87,5.87v54.77H124.5c-0.01,0-0.02,0.01-0.03,0.01c-22,0.01-39.9,17.92-39.9,39.92v78.48h-2.51   c-10.17,0-18.44,8.27-18.44,18.44v176.04c0,10.17,8.27,18.44,18.44,18.44h17.79l-24.81,67.55c-0.66,1.8-0.4,3.81,0.7,5.39   c1.1,1.57,2.9,2.51,4.82,2.51h350.88c1.92,0,3.72-0.94,4.82-2.51c1.1-1.57,1.36-3.59,0.7-5.39l-24.81-67.55h17.79   c10.17,0,18.44-8.27,18.44-18.44V219.78C448.38,209.61,440.11,201.34,429.94,201.34z M372.39,94.68h15.11   c15.54,0,28.18,12.65,28.18,28.18v78.48h-43.29V94.68z M328.9,42.35l23.44,23.44H328.9V42.35z M151.35,34.04h165.8v37.62   c0,3.24,2.63,5.87,5.87,5.87h37.63v123.81h-209.3V34.04z M96.32,122.86c0-15.54,12.64-28.18,28.18-28.18c0.01,0,0.01,0,0.02,0   h15.08v106.66H96.32V122.86z M423.03,477.96H88.97l23.39-63.7h11.9c1.65,8.55,9.18,15.02,18.2,15.02h227.08   c9.03,0,16.55-6.47,18.21-15.02h11.89L423.03,477.96z M135.66,410.74v-4.69c0-3.75,3.05-6.8,6.8-6.8h227.08   c3.75,0,6.81,3.05,6.81,6.8v4.69c0,3.75-3.06,6.8-6.81,6.8H142.46C138.71,417.54,135.66,414.48,135.66,410.74z M436.63,395.82   c0,3.69-3,6.7-6.69,6.7h-42.2c-1.65-8.54-9.18-15.02-18.2-15.02H142.46c-9.02,0-16.55,6.48-18.2,15.02h-42.2   c-3.69,0-6.69-3.01-6.69-6.7V219.78c0-3.69,3-6.69,6.69-6.69h347.88c3.69,0,6.69,3,6.69,6.69V395.82z" fill="#788C23"/><path d="M423.03,477.96H88.97l23.39-63.7h11.9c1.65,8.55,9.18,15.02,18.2,15.02h227.08   c9.03,0,16.55-6.47,18.21-15.02h11.89L423.03,477.96z" fill="#DBF471"/><path d="M323.02,77.53c-3.24,0-5.87-2.63-5.87-5.87V34.04h-165.8v167.3h209.3V77.53H323.02z M172.02,61.73h80.7   c3.24,0,5.87,2.63,5.87,5.87c0,3.25-2.63,5.88-5.87,5.88h-80.7c-3.25,0-5.88-2.63-5.88-5.88   C166.14,64.36,168.77,61.73,172.02,61.73z M316.46,184H172.02c-3.25,0-5.88-2.63-5.88-5.88c0-3.24,2.63-5.87,5.88-5.87h144.44   c3.24,0,5.87,2.63,5.87,5.87C322.33,181.37,319.7,184,316.46,184z M316.46,156.37H172.02c-3.25,0-5.88-2.63-5.88-5.88   c0-3.24,2.63-5.87,5.88-5.87h144.44c3.24,0,5.87,2.63,5.87,5.87C322.33,153.74,319.7,156.37,316.46,156.37z M316.46,128.74H172.02   c-3.25,0-5.88-2.63-5.88-5.88c0-3.24,2.63-5.87,5.88-5.87h144.44c3.24,0,5.87,2.63,5.87,5.87   C322.33,126.11,319.7,128.74,316.46,128.74z M316.46,101.11H172.02c-3.25,0-5.88-2.63-5.88-5.88c0-3.24,2.63-5.87,5.88-5.87h144.44   c3.24,0,5.87,2.63,5.87,5.87C322.33,98.48,319.7,101.11,316.46,101.11z" fill="#DBF471"/><path d="M429.94,213.09H82.06c-3.69,0-6.69,3-6.69,6.69v176.04c0,3.69,3,6.7,6.69,6.7h42.2   c1.65-8.54,9.18-15.02,18.2-15.02h227.08c9.02,0,16.55,6.48,18.2,15.02h42.2c3.69,0,6.69-3.01,6.69-6.7V219.78   C436.63,216.09,433.63,213.09,429.94,213.09z M389.09,278.6c-12.49,0-22.64-10.15-22.64-22.64c0-12.48,10.15-22.64,22.64-22.64   c12.48,0,22.64,10.16,22.64,22.64C411.73,268.45,401.57,278.6,389.09,278.6z" fill="#A9C352"/><path d="M389.09,233.32c-12.49,0-22.64,10.16-22.64,22.64c0,12.49,10.15,22.64,22.64,22.64   c12.48,0,22.64-10.15,22.64-22.64C411.73,243.48,401.57,233.32,389.09,233.32z M389.09,266.85c-6.01,0-10.89-4.88-10.89-10.89   c0-6,4.88-10.89,10.89-10.89c6,0,10.89,4.89,10.89,10.89C399.98,261.97,395.09,266.85,389.09,266.85z" fill="#788C23"/><path d="M258.59,67.6c0,3.25-2.63,5.88-5.87,5.88h-80.7c-3.25,0-5.88-2.63-5.88-5.88c0-3.24,2.63-5.87,5.88-5.87   h80.7C255.96,61.73,258.59,64.36,258.59,67.6z" fill="#788C23"/><path d="M322.33,95.23c0,3.25-2.63,5.88-5.87,5.88H172.02c-3.25,0-5.88-2.63-5.88-5.88c0-3.24,2.63-5.87,5.88-5.87   h144.44C319.7,89.36,322.33,91.99,322.33,95.23z" fill="#788C23"/><path d="M322.33,122.86c0,3.25-2.63,5.88-5.87,5.88H172.02c-3.25,0-5.88-2.63-5.88-5.88c0-3.24,2.63-5.87,5.88-5.87   h144.44C319.7,116.99,322.33,119.62,322.33,122.86z" fill="#788C23"/><path d="M322.33,150.49c0,3.25-2.63,5.88-5.87,5.88H172.02c-3.25,0-5.88-2.63-5.88-5.88c0-3.24,2.63-5.87,5.88-5.87   h144.44C319.7,144.62,322.33,147.25,322.33,150.49z" fill="#788C23"/><path d="M322.33,178.12c0,3.25-2.63,5.88-5.87,5.88H172.02c-3.25,0-5.88-2.63-5.88-5.88c0-3.24,2.63-5.87,5.88-5.87   h144.44C319.7,172.25,322.33,174.88,322.33,178.12z" fill="#788C23"/></g></svg>