<?xml version="1.0" ?><!DOCTYPE svg  PUBLIC '-//W3C//DTD SVG 1.0//EN'  'http://www.w3.org/TR/2001/REC-SVG-20010904/DTD/svg10.dtd'><svg height="128px" style="shape-rendering:geometricPrecision; text-rendering:geometricPrecision; image-rendering:optimizeQuality; fill-rule:evenodd; clip-rule:evenodd" version="1.0" viewBox="0 0 12571 15547" width="104px" xml:space="preserve" xmlns="http://www.w3.org/2000/svg" xmlns:xlink="http://www.w3.org/1999/xlink"><defs><style type="text/css">
   <![CDATA[
    .fil0 {fill:#E6C131}
   ]]>
  </style></defs><g id="Layer_x0020_1"><path class="fil0" d="M1475 0l6645 0c812,0 1475,664 1475,1475l0 2337 -1381 0 0 -1061 -6832 0 0 10045 6832 0 0 -2668 1381 0 0 3944c0,811 -663,1475 -1475,1475l-6645 0c-811,0 -1475,-664 -1475,-1475l0 -12597c0,-811 664,-1475 1475,-1475zm4245 5753l5162 0 0 606 -5162 0 0 -606zm0 1488l2896 0 0 607 -2896 0 0 -607zm-31 -2579l5941 0c518,0 941,424 941,942l0 2732c0,518 -423,942 -941,942l-4192 0 -1536 1852 0 -1852 -213 0c-518,0 -941,-424 -941,-942l0 -2732c0,-518 423,-942 941,-942zm-1764 -3589l1609 0c372,0 372,562 0,562l-1609 0c-372,0 -372,-562 0,-562zm873 12427c402,0 728,327 728,729 0,402 -326,729 -728,729 -403,0 -729,-327 -729,-729 0,-402 326,-729 729,-729z"/></g></svg>