<svg height="512pt" viewBox="0 -102 512 511" width="512pt" xmlns="http://www.w3.org/2000/svg"><path d="m7.507812 145.65625 18.648438 153.363281h20.777344l-3.183594-128.425781c8.292969 0 16.371094 2.640625 23.066406 7.539062l101.09375 74.011719-95.046875-95.050781c-7.324219-7.324219-17.253906-11.4375-27.609375-11.4375zm0 0" fill="#787680"/><path d="m7.507812 145.65625h37.742188c10.359375 0 20.289062 4.117188 27.613281 11.4375l129.21875 129.222656c8.132813 8.132813 19.164063 12.703125 30.667969 12.703125h155.535156c0-27.785156-14.523437-53.550781-38.292968-67.9375l-60.894532-36.847656-1.015625 29.800781c-18.40625 0-36.054687-7.3125-49.070312-20.324218l-171.734375-171.738282-21.644532 21.640625c-24.410156 24.414063-38.125 57.523438-38.125 92.042969zm0 0" fill="#ff7956"/><path d="m111.324219 76.019531 127.6875 127.691407c13.015625 13.011718 30.664062 20.324218 49.070312 20.324218l1.015625-29.800781 60.894532 36.847656c23.769531 14.386719 38.292968 40.152344 38.292968 67.9375h107.527344v-223zm0 0" fill="#ffe477"/><path d="m167.910156 252.144531-101.09375-74.011719c-6.695312-4.898437-14.773437-7.539062-23.066406-7.539062l3.183594 128.425781h185.816406c-11.5 0-22.53125-4.570312-30.664062-12.703125zm0 0" fill="#ffe477"/><path d="m7.503906 8.003906v68.015625h20.199219c5.09375-8.042969 11.09375-15.566406 17.929687-22.40625l21.644532-21.640625 44.046875 44.046875h393.175781v-68.015625zm0 0" fill="#ffe477"/><path d="m37.515625 145.65625h-30.007813l18.648438 153.363281h20.777344l-2.363282-95.359375zm0 0" fill="#57565c"/><path d="m73.757812 170.59375.320313 12.855469 93.832031 68.695312-78.09375-78.097656c-5.019531-2.265625-10.488281-3.453125-16.058594-3.453125zm0 0" fill="#57565c"/><path d="m318.089844 224.035156.410156-12.007812-29.398438-17.792969-.789062 23.085937c9.21875 4.378907 19.378906 6.714844 29.777344 6.714844zm0 0" fill="#ff3f62"/><path d="m75.640625 53.613281 6.640625-6.636719-15.003906-15.003906-21.644532 21.640625c-24.410156 24.414063-38.125 57.523438-38.125 92.042969h30.007813c0-34.519531 13.714844-67.628906 38.125-92.042969zm0 0" fill="#ff3f62"/><path d="m102.871094 157.09375c-7.324219-7.324219-17.253906-11.4375-27.609375-11.4375h-30.007813c10.355469 0 20.285156 4.117188 27.609375 11.4375l129.222657 129.222656c8.132812 8.132813 19.164062 12.703125 30.664062 12.703125h30.007812c-11.5 0-22.53125-4.570312-30.664062-12.703125zm0 0" fill="#ff3f62"/><g fill="#ffb655"><path d="m269.019531 203.710938-127.6875-127.691407h-30.007812l127.6875 127.691407c13.015625 13.011718 30.664062 20.324218 49.070312 20.324218l.230469-6.714844c-7.09375-3.371093-13.632812-7.949218-19.292969-13.609374zm0 0"/><path d="m380 231.082031-60.890625-36.847656-.609375 17.792969 31.492188 19.054687c23.773437 14.386719 38.296874 40.152344 38.296874 67.9375h30.007813c0-27.785156-14.523437-53.550781-38.296875-67.9375zm0 0"/><path d="m66.816406 178.132812c-6.695312-4.898437-14.773437-7.539062-23.066406-7.539062l3.183594 128.425781h30.011718l-2.867187-115.570312zm0 0"/><path d="m37.511719 8.003906h-30.007813v68.015625h20.199219c2.964844-4.683593 6.242187-9.191406 9.808594-13.488281zm0 0"/><path d="m82.28125 46.976562 29.042969 29.042969h30.007812l-44.046875-44.046875zm0 0"/></g><path d="m353.875 224.664062-71.835938-43.472656-1.191406 34.925782c-13.796875-1.597657-26.5625-7.746094-36.53125-17.710938l-177.039062-177.042969-26.949219 26.945313c-26 26.003906-40.3203125 60.574218-40.3203125 97.347656v7.503906l19.5039065 153.359375h35.113281l-3.160156-127.476562c3.90625.980469 7.597656 2.710937 10.917968 5.144531l100.628907 73.667969 33.769531 33.765625c9.605469 9.605468 22.382812 14.898437 35.96875 14.898437h163.039062v-7.5c0-30.21875-16.058593-58.710937-41.914062-74.355469zm-282.625-52.585937c-8.035156-5.878906-17.542969-8.988281-27.5-8.988281h-7.691406l3.1875 128.425781h-6.441406l-17.683594-138.355469h30.128906c8.429688 0 16.351562 3.28125 22.308594 9.238282l26.046875 26.046874zm161.5 119.4375c-9.578125 0-18.585938-3.730469-25.359375-10.503906l-129.222656-129.222657c-8.789063-8.789062-20.480469-13.632812-32.914063-13.632812h-30.019531c1.796875-29.941406 14.316406-57.84375 35.707031-79.234375l16.335938-16.339844 166.433594 166.433594c14.523437 14.523437 33.832031 22.523437 54.371093 22.523437h7.25l.828125-24.261718 49.949219 30.226562c19.234375 11.640625 31.917969 31.871094 34.277344 54.011719zm0 0"/><path d="m0 .5v70.148438h15.003906v-55.144532h481.992188v53.015625h-357.378906v15.003907h372.382812v-83.023438zm0 0"/><path d="m66.945312 291.515625h119.546876v15.003906h-119.546876zm0 0"/><path d="m488.3125 109.132812h-56.515625v15.003907h56.515625v167.378906h-80.019531v15.003906h95.023437v-210.492187h-15.003906zm0 0"/><path d="m191.011719 201.683594-93.675781-93.675782 10.609374-10.609374 93.675782 93.675781zm-100.75-100.75-10.609375-10.605469 10.609375-10.613281 10.609375 10.609375zm-17.683594-17.679688-10.609375-10.609375 10.613281-10.609375 10.609375 10.605469zm0 0" fill="#fff"/><path d="m479.492188 40.511719h-176.398438v-15.003907h176.398438zm-186.402344 0h-15.003906v-15.003907h15.003906zm-25.007813 0h-15.003906v-15.003907h15.003906zm0 0" fill="#fff"/></svg>