<svg width="1792" height="1792" xmlns="http://www.w3.org/2000/svg">

 <g>
  <title>background</title>
  <rect fill="none" id="canvas_background" height="402" width="582" y="-1" x="-1"/>
 </g>
 <g>
  <title>Layer 1</title>
  <path fill="#ffffff" id="svg_1" d="m896,672q119,0 203.5,84.5t84.5,203.5t-84.5,203.5t-203.5,84.5t-203.5,-84.5t-84.5,-203.5t84.5,-203.5t203.5,-84.5zm704,-416q106,0 181,75t75,181l0,896q0,106 -75,181t-181,75l-1408,0q-106,0 -181,-75t-75,-181l0,-896q0,-106 75,-181t181,-75l224,0l51,-136q19,-49 69.5,-84.5t103.5,-35.5l512,0q53,0 103.5,35.5t69.5,84.5l51,136l224,0zm-704,1152q185,0 316.5,-131.5t131.5,-316.5t-131.5,-316.5t-316.5,-131.5t-316.5,131.5t-131.5,316.5t131.5,316.5t316.5,131.5z"/>
 </g>
</svg>