<svg width="24" height="24" xmlns="http://www.w3.org/2000/svg">

 <g>
  <title>background</title>
  <rect fill="none" id="canvas_background" height="402" width="582" y="-1" x="-1"/>
 </g>
 <g>
  <title>Layer 1</title>
  <path fill="#3f51b5" id="svg_2" d="m16.9,7.1c-0.4,-0.4 -1,-0.4 -1.4,0l-8.4,8.4c-0.4,0.4 -0.4,1 0,1.4c0.4,0.4 1,0.4 1.4,0l8.4,-8.4c0.4,-0.4 0.4,-1 0,-1.4z"/>
  <path fill="#3f51b5" id="svg_3" d="m8.5,22.5l3.5,-3.5c1.4,-1.4 1.8,-3.5 1.1,-5.3l-1.7,1.7c0,0.8 -0.2,1.6 -0.9,2.3l-3.5,3.5c-1.2,1.2 -3.1,1.2 -4.2,0c-1.2,-1.2 -1.2,-3.1 0,-4.2l3.5,-3.5c0.6,-0.6 1.5,-0.9 2.3,-0.9l1.7,-1.7c-1.8,-0.7 -3.9,-0.4 -5.3,1.1l-3.5,3.5c-1.9,1.9 -1.9,5.1 0,7c1.9,2 5.1,2 7,0z"/>
  <path fill="#3f51b5" id="svg_4" d="m13.4,6.4l3.5,-3.5c1.2,-1.2 3.1,-1.2 4.2,0s1.2,3.1 0,4.2l-3.5,3.5c-0.6,0.6 -1.5,0.9 -2.3,0.9l-1.7,1.7c1.8,0.7 3.9,0.3 5.3,-1.1l3.5,-3.5c1.9,-1.9 1.9,-5.1 0,-7c-1.9,-1.9 -5.1,-1.9 -7,0l-3.4,3.4c-1.4,1.4 -1.8,3.5 -1.1,5.3l1.7,-1.7c-0.1,-0.8 0.2,-1.6 0.8,-2.2z"/>
 </g>
</svg>