<svg width="64" height="64" xmlns="http://www.w3.org/2000/svg">

 <title/>
 <g>
  <title>background</title>
  <rect fill="none" id="canvas_background" height="402" width="582" y="-1" x="-1"/>
 </g>
 <g>
  <title>Layer 1</title>
  <path fill="#ffffff" id="svg_1" d="m13,38l40,0a2,2 0 0 0 1.93,-1.47l6,-22a2,2 0 0 0 -1.93,-2.53l-46.25,0l-0.75,-4.35a2,2 0 0 0 -2,-1.65l-5,0a2,2 0 0 0 0,4l3.33,0l4.28,24a7,7 0 0 0 0.39,14l1.68,0a7,7 0 1 0 12.64,0l10.36,0a7,7 0 1 0 12.64,0l5.68,0a2,2 0 0 0 0,-4l-43,0a3,3 0 0 1 0,-6zm43.38,-22l-4.91,18l-34.8,0l-3.21,-18l42.92,0zm-32.38,35a3,3 0 1 1 -3,-3a3,3 0 0 1 3,3zm23,0a3,3 0 1 1 -3,-3a3,3 0 0 1 3,3z" class="cls-1"/>
 </g>
</svg>