<svg xmlns="http://www.w3.org/2000/svg" width="67.54" height="141.734" viewBox="0 0 67.54 141.734">
  <g id="Livello_108" transform="translate(-32.317 -0.008)">
    <path id="Path_50" data-name="Path 50" d="M55.77,82.3H36.078V92.16h1.693v49.582H54.2V92.156H55.77V82.3Zm3.8-36.828c0-.048-.005-.086-.005-.134h.005V2.735a2.724,2.724,0,1,0-5.448,0V35.984a2.725,2.725,0,0,1-5.4-.538V2.735a2.754,2.754,0,0,0-5.508,0V35.44a2.724,2.724,0,1,1-5.448,0V2.751h-.011c0-.038.009-.071.009-.109a2.729,2.729,0,0,0-5.455,0c0,.038,0,.071.006.109h-.006V45.334h0c0,.05,0,.089,0,.137,0,10.657,3.541,19.768,8.547,23.52V81.842h10.12V69.02c5.031-3.73,8.59-12.86,8.59-23.549m38.158,55.385V.009A22.8,22.8,0,0,0,81.38,21.883c0,.021,0,.044,0,.064h0v78.91H79.118v10.9H81.38V141.74H97.732V111.757h2.125v-10.9Z" fill="#fff"/>
  </g>
</svg>
