<svg id="iconfinder_document_text_accept_103510" xmlns="http://www.w3.org/2000/svg" width="32" height="32" viewBox="0 0 32 32">
  <g id="background">
    <rect id="Rectangle_29" data-name="Rectangle 29" width="32" height="32" fill="none"/>
  </g>
  <g id="document_x5F_text_x5F_accept">
    <path id="Path_43" data-name="Path 43" d="M24,14.059V5.584L18.414,0H0V32H24v-.059a9,9,0,0,0,0-17.882ZM18,2.413,21.586,6H18V2.413ZM2,30V2H16V8h6v6.06A8.957,8.957,0,0,0,17.348,16H4v2H15.517a8.952,8.952,0,0,0-.994,2H4v2H14.059a8.937,8.937,0,0,0,3.29,8Zm21-.117A6.884,6.884,0,1,1,29.883,23,6.9,6.9,0,0,1,23,29.883ZM20,12H4v2H20Z" fill="#fff"/>
    <path id="Path_44" data-name="Path 44" d="M18,23l2-2,2,2,4-4,2,2-6,6Z" fill="#fff"/>
  </g>
</svg>
