<svg xmlns="http://www.w3.org/2000/svg" width="402.549" height="384.209" viewBox="0 0 402.549 384.209">
  <g id="D_-_11_x2C__Agreement_x2C__report_x2C__form_x2C__layout_x2C__paper" transform="translate(-54.726 -63.896)">
    <g id="Group_19" data-name="Group 19">
      <path id="Path_45" data-name="Path 45" d="M391.03,244.56l0,0L297.906,361l-14.982,52.656,44.89-30.143,55.728-78.865,0,0,19.016-26.912.061-.084,26.635-35.973-22.4-16.9Z" fill="#fff"/>
      <path id="Path_46" data-name="Path 46" d="M56.573,434.324a13.737,13.737,0,0,0,12.921,13.748c.191-.014.381-.041.572-.063s.4-.041.6-.075.38-.082.57-.125c.21-.048.421-.089.63-.147.179-.051.355-.116.533-.175.215-.07.432-.137.645-.219.168-.065.333-.145.5-.217.217-.1.435-.184.648-.289.16-.079.315-.171.473-.256.214-.116.43-.227.639-.354.154-.093.3-.2.453-.3.206-.135.414-.265.614-.408.149-.108.291-.227.437-.34.193-.149.39-.294.576-.452.146-.123.283-.258.425-.387.177-.16.357-.316.527-.485.143-.14.274-.291.411-.437.158-.168.321-.332.473-.506s.265-.33.4-.495.279-.336.408-.511.255-.374.382-.562c.113-.168.232-.331.339-.5.13-.21.244-.428.363-.643.087-.156.183-.309.264-.468.146-.283.271-.574.4-.865.041-.1.09-.188.129-.283q.235-.584.414-1.18c.037-.125.06-.252.093-.378.073-.275.148-.548.2-.824.03-.158.042-.317.066-.476.038-.25.082-.5.1-.752l0-.059c.021-.267.039-.532.039-.8V110.75H54.726Z" fill="#fff"/>
      <path id="Path_47" data-name="Path 47" d="M335.828,69.214v32.165h38.6Z" fill="#fff"/>
      <path id="Path_48" data-name="Path 48" d="M333.754,390.813l-56.178,37.723-.023.016-.025.017c-.018.012-.037.021-.055.032a4.856,4.856,0,0,1-.5.281l-.074.04c-.039.019-.08.028-.119.046-.133.058-.267.108-.4.154-.045.015-.091.035-.138.049-.03.009-.063.015-.1.022-.136.038-.275.066-.414.091-.058.01-.114.024-.172.033l-.048.006a4.816,4.816,0,0,1-.6.041l-.054,0c-.07,0-.14-.013-.21-.016-.148-.009-.3-.015-.445-.037l-.043-.009c-.076-.012-.148-.035-.225-.051-.141-.03-.281-.059-.42-.1l-.053-.016c-.078-.025-.154-.063-.232-.094-.126-.049-.252-.1-.376-.155-.021-.011-.041-.017-.062-.027-.08-.041-.153-.1-.231-.14s-.181-.094-.267-.152c-.26-.175-26.088-17.357-42.138-9.336a33.715,33.715,0,0,1-15.073,3.069c-20.171,0-44.072-11.8-45.343-12.44a4.685,4.685,0,0,1,4.19-8.381c9.853,4.916,38.408,16.184,52.037,9.371,15.814-7.91,36.422,1.308,46.117,6.668l17.068-59.985a5.662,5.662,0,0,1,.846-1.645l92.684-115.888V110.75H331.143a4.685,4.685,0,0,1-4.686-4.686V63.9H92.183V434.048c0,.4-.02.822-.05,1.281v.008l-.014.214c0,.033,0,.066-.007.1-.041.507-.107,1.012-.186,1.513-.016.1-.031.207-.049.311q-.125.727-.3,1.444c-.021.086-.045.171-.067.257q-.171.666-.382,1.318c-.021.067-.041.133-.063.2-.157.468-.332.933-.52,1.391-.042.1-.084.2-.127.3-.195.461-.4.916-.625,1.363-.021.042-.044.082-.065.123q-.322.635-.684,1.248c-.049.084-.1.17-.147.253q-.382.637-.8,1.252c-.057.084-.116.165-.174.249-.275.392-.56.778-.856,1.154-.019.025-.036.051-.055.075h295.67v-126l-47.713,67.523A4.658,4.658,0,0,1,333.754,390.813ZM237.433,87.323h18.742v18.742H237.433V87.323Zm-37.484,0h18.742v18.742H199.949Zm-37.484,0h18.742v18.742H162.465Zm-37.484,0h18.742v18.742H124.981Zm0,42.169H303.029a4.686,4.686,0,1,1,0,9.371H124.981a4.686,4.686,0,1,1,0-9.371Zm0,28.113H331.143a4.686,4.686,0,1,1,0,9.372H124.981a4.686,4.686,0,0,1,0-9.372Zm0,28.113H284.287a4.686,4.686,0,0,1,0,9.372H124.981a4.686,4.686,0,0,1,0-9.372Zm0,28.113H265.545a4.686,4.686,0,0,1,0,9.372H124.981a4.686,4.686,0,0,1,0-9.372Zm0,28.112H237.433a4.686,4.686,0,0,1,0,9.372H124.981a4.686,4.686,0,0,1,0-9.372Zm0,28.114H284.287a4.686,4.686,0,0,1,0,9.372H124.981a4.686,4.686,0,0,1,0-9.372Zm-4.686,32.8a4.686,4.686,0,0,1,4.686-4.686H284.287a4.686,4.686,0,0,1,0,9.372H124.981A4.687,4.687,0,0,1,120.295,302.854Z" fill="#fff"/>
      <path id="Path_49" data-name="Path 49" d="M434.773,187.333l-22.207,30.016,8.858,6.682,13.425,10.127,22.426-30.01Z" fill="#fff"/>
    </g>
  </g>
</svg>
