<svg xmlns="http://www.w3.org/2000/svg" width="40" height="44.38" viewBox="0 0 40 44.38">
  <g id="_x32_5-Support" transform="translate(-12 -9.81)">
    <g id="Group_19" data-name="Group 19">
      <path id="Path_42" data-name="Path 42" d="M38.966,34.662a10.235,10.235,0,0,1-13.933,0A19.816,19.816,0,0,0,12,53.19a1,1,0,0,0,1,1H51a1,1,0,0,0,1-1A19.816,19.816,0,0,0,38.966,34.662Z" fill="#fff"/>
      <path id="Path_43" data-name="Path 43" d="M41.119,24.472c-.246-5.484-4.236-9.864-9.119-9.864s-8.873,4.38-9.119,9.864c.009,0,.017,0,.025,0a6.454,6.454,0,0,0,1.357.135,8.029,8.029,0,0,0,6.87-4.286,1.039,1.039,0,0,1,1.732,0,8.029,8.029,0,0,0,6.87,4.286,6.454,6.454,0,0,0,1.357-.135C41.1,24.47,41.11,24.474,41.119,24.472Z" fill="#fff"/>
      <path id="Path_44" data-name="Path 44" d="M32,22.62a9.769,9.769,0,0,1-7.736,3.988,8.7,8.7,0,0,1-1.3-.105c.642,5.022,4.444,8.9,9.036,8.9s8.394-3.874,9.036-8.9a8.7,8.7,0,0,1-1.3.105A9.769,9.769,0,0,1,32,22.62Z" fill="#fff"/>
      <path id="Path_45" data-name="Path 45" d="M22.07,31.14h.26A13.313,13.313,0,0,1,20.86,25a13.84,13.84,0,0,1,.47-3.56l.01-.01a11.723,11.723,0,0,1,.57-1.67c1.74-4.81,5.65-7.95,10.09-7.95s8.35,3.14,10.09,7.95a11.723,11.723,0,0,1,.57,1.67l.01.01A13.84,13.84,0,0,1,43.14,25a13.313,13.313,0,0,1-1.47,6.14h.26a5.744,5.744,0,0,0,5.67-4.77,1.891,1.891,0,0,1,1.06.51c.11.12.43.48.11,1.37-.91,2.62-3.84,4.01-6.07,4.39a1,1,0,0,0,.17,1.99,1.1,1.1,0,0,0,.18-.02c2.89-.5,6.41-2.26,7.61-5.7a3.216,3.216,0,0,0-.52-3.37,4,4,0,0,0-2.57-1.19A5.787,5.787,0,0,0,46,21.39a5.875,5.875,0,0,0-1.65-1.12C42.59,14,37.65,9.81,32,9.81s-10.59,4.2-12.35,10.47a5.8,5.8,0,0,0-1.67,1.13,5.707,5.707,0,0,0,4.09,9.73Z" fill="#fff"/>
    </g>
  </g>
</svg>
