<svg xmlns="http://www.w3.org/2000/svg" width="19" height="17" viewBox="0 0 19 17">
  <g id="iconfinder_user-add_216490" transform="translate(-3 -4)">
    <path id="Path_51" data-name="Path 51" d="M9,14a5,5,0,1,0-3.536-1.465A4.985,4.985,0,0,0,9,14Z" fill="#fff"/>
    <path id="Path_52" data-name="Path 52" d="M9,21c3.518,0,6-1,6-2,0-2-2.354-4-6-4-3.75,0-6,2-6,4C3,20,5.25,21,9,21Z" fill="#fff"/>
    <path id="Path_53" data-name="Path 53" d="M21,12H19V10a1,1,0,0,0-2,0v2H15a1,1,0,0,0,0,2h2v2a1,1,0,0,0,2,0V14h2a1,1,0,0,0,0-2Z" fill="#fff"/>
  </g>
</svg>
